<?xml version="1.0" encoding="utf-8"?>
<!-- Generator: Adobe Illustrator 16.0.0, SVG Export Plug-In . SVG Version: 6.00 Build 0)  -->
<!DOCTYPE svg PUBLIC "-//W3C//DTD SVG 1.1//EN" "http://www.w3.org/Graphics/SVG/1.1/DTD/svg11.dtd">
<svg version="1.1" id="Laag_1" xmlns="http://www.w3.org/2000/svg" xmlns:xlink="http://www.w3.org/1999/xlink" x="0px" y="0px"
	 width="884.667px" height="446.503px" viewBox="0 0 884.667 446.503" enable-background="new 0 0 884.667 446.503"
	 xml:space="preserve">
<g>
	<rect x="246.667" y="123.001" fill="#855C9D" width="69.834" height="5.375"/>
	<rect x="252.501" y="127.376" fill="#855C9D" width="6.833" height="5.666"/>
	<rect x="265.5" y="127.376" fill="#855C9D" width="6.833" height="5.666"/>
	<rect x="293.167" y="127.376" fill="#855C9D" width="6.833" height="5.667"/>
	<rect x="307.835" y="127.376" fill="#855C9D" width="6.833" height="5.667"/>
	<rect x="279.167" y="127.376" fill="#855C9D" width="6.833" height="5.666"/>
</g>
<rect x="5.396" y="279.126" fill="#262626" width="35.792" height="2.227"/>
<rect x="5.396" y="283.534" fill="#262626" width="35.792" height="2.227"/>
<rect x="5.396" y="287.962" fill="#262626" width="35.792" height="2.227"/>
<rect x="554.667" y="38.001" fill="#DDDDDD" width="8.833" height="375.5"/>
<g>
	<rect x="587.333" y="20.501" fill="#7BA64F" width="21.167" height="78.833"/>
	<rect x="582.667" y="26.501" fill="#7BA64F" width="5.667" height="6.833"/>
	<rect x="582.667" y="47.334" fill="#7BA64F" width="5.667" height="6.833"/>
	<rect x="582.667" y="65.334" fill="#7BA64F" width="5.667" height="6.833"/>
	<rect x="582.667" y="86.501" fill="#7BA64F" width="5.667" height="6.833"/>
	<rect x="607.5" y="26.501" fill="#7BA64F" width="5.667" height="6.833"/>
	<rect x="607.5" y="47.334" fill="#7BA64F" width="5.667" height="6.833"/>
	<rect x="607.5" y="65.334" fill="#7BA64F" width="5.667" height="6.833"/>
	<rect x="607.5" y="86.501" fill="#7BA64F" width="5.667" height="6.833"/>
</g>
<g>
	<rect x="664.583" y="20.501" fill="#7BA64F" width="21.167" height="78.833"/>
	<rect x="659.917" y="26.501" fill="#7BA64F" width="5.666" height="6.833"/>
	<rect x="659.917" y="47.334" fill="#7BA64F" width="5.666" height="6.833"/>
	<rect x="659.917" y="65.334" fill="#7BA64F" width="5.666" height="6.833"/>
	<rect x="659.917" y="86.501" fill="#7BA64F" width="5.666" height="6.833"/>
	<rect x="684.75" y="26.501" fill="#7BA64F" width="5.667" height="6.833"/>
	<rect x="684.75" y="47.334" fill="#7BA64F" width="5.667" height="6.833"/>
	<rect x="684.75" y="65.334" fill="#7BA64F" width="5.667" height="6.833"/>
	<rect x="684.75" y="86.501" fill="#7BA64F" width="5.667" height="6.833"/>
</g>
<g>
	<rect x="741" y="20.501" fill="#7BA64F" width="21.167" height="78.833"/>
	<rect x="736.334" y="26.501" fill="#7BA64F" width="5.666" height="6.833"/>
	<rect x="736.334" y="47.334" fill="#7BA64F" width="5.666" height="6.833"/>
	<rect x="736.334" y="65.334" fill="#7BA64F" width="5.666" height="6.833"/>
	<rect x="736.334" y="86.501" fill="#7BA64F" width="5.666" height="6.833"/>
	<rect x="761.167" y="26.501" fill="#7BA64F" width="5.667" height="6.833"/>
	<rect x="761.167" y="47.334" fill="#7BA64F" width="5.667" height="6.833"/>
	<rect x="761.167" y="65.334" fill="#7BA64F" width="5.667" height="6.833"/>
	<rect x="761.167" y="86.501" fill="#7BA64F" width="5.667" height="6.833"/>
</g>
<g>
	<rect x="818" y="20.501" fill="#7BA64F" width="21.167" height="78.833"/>
	<rect x="813.333" y="26.501" fill="#7BA64F" width="5.666" height="6.833"/>
	<rect x="813.333" y="47.334" fill="#7BA64F" width="5.666" height="6.833"/>
	<rect x="813.333" y="65.334" fill="#7BA64F" width="5.666" height="6.833"/>
	<rect x="813.333" y="86.501" fill="#7BA64F" width="5.666" height="6.833"/>
	<rect x="838.166" y="26.501" fill="#7BA64F" width="5.667" height="6.833"/>
	<rect x="838.166" y="47.334" fill="#7BA64F" width="5.667" height="6.833"/>
	<rect x="838.166" y="65.334" fill="#7BA64F" width="5.667" height="6.833"/>
	<rect x="838.166" y="86.501" fill="#7BA64F" width="5.667" height="6.833"/>
</g>
<rect x="746.542" y="127.626" fill="#0F0F0F" width="1.5" height="37.5"/>
<rect x="746.542" y="165.126" fill="#0F0F0F" width="51.793" height="3"/>
<rect x="795.105" y="155.876" fill="#0F0F0F" width="60.397" height="3"/>
<rect x="795.105" y="116.876" fill="#0F0F0F" width="3" height="98.125"/>
<rect x="783.292" y="213.001" fill="#0F0F0F" width="13.312" height="2"/>
<rect x="745.835" y="116.501" fill="#0F0F0F" width="0.707" height="98.959"/>
<rect x="746.542" y="116.501" fill="#0F0F0F" width="111.125" height="0.375"/>
<rect x="745.835" y="215.001" fill="#0F0F0F" width="52.27" height="0.459"/>
<rect x="705.667" y="8.501" fill="#0F0F0F" width="12.75" height="29.5"/>
<rect x="710.167" y="38.001" fill="#0F0F0F" width="4.25" height="59.5"/>
<g>
	<rect x="782.355" y="8.501" fill="#0F0F0F" width="12.75" height="29.5"/>
	<rect x="786.855" y="38.001" fill="#0F0F0F" width="4.25" height="59.5"/>
</g>
<rect x="628.917" y="8.501" fill="#0F0F0F" width="12.75" height="29.5"/>
<rect x="633.417" y="38.001" fill="#0F0F0F" width="4.25" height="59.5"/>
<g>
	<rect x="476.167" y="8.501" fill="#0F0F0F" width="12.75" height="29.5"/>
	<rect x="480.667" y="38.001" fill="#0F0F0F" width="4.25" height="53.5"/>
</g>
<g>
	<rect x="322.917" y="8.501" fill="#0F0F0F" width="12.75" height="29.5"/>
	<rect x="327.417" y="38.001" fill="#0F0F0F" width="4.25" height="57.5"/>
</g>
<g>
	<rect x="246.167" y="8.501" fill="#0F0F0F" width="12.75" height="29.5"/>
	<rect x="250.667" y="38.001" fill="#0F0F0F" width="4.25" height="57.5"/>
</g>
<g>
	<rect x="169.667" y="8.501" fill="#0F0F0F" width="12.75" height="29.5"/>
	<rect x="174.167" y="38.001" fill="#0F0F0F" width="4.25" height="57.5"/>
</g>
<rect fill="#0F0F0F" width="10" height="446.503"/>
<rect x="10" y="438.001" fill="#0F0F0F" width="874.667" height="8.502"/>
<rect x="879.167" fill="#0F0F0F" width="5.5" height="439.001"/>
<rect x="7.25" fill="#0F0F0F" width="874.667" height="8.501"/>
<rect x="854" y="116.501" width="12.667" height="98.959"/>
<rect x="821" y="197.502" width="3.167" height="17.959"/>
<rect x="824.167" y="197.502" width="31.335" height="3.833"/>
<rect x="796.605" y="205.335" width="24.396" height="2.667"/>
<rect x="552.667" y="8.501" fill="#0F0F0F" width="12.5" height="29.5"/>
<rect x="552.667" y="413.501" fill="#0F0F0F" width="13.25" height="28.752"/>
<rect x="475.667" y="413.501" fill="#0F0F0F" width="13.25" height="28.752"/>
<rect x="399.167" y="413.501" fill="#0F0F0F" width="13.25" height="28.752"/>
<rect x="322.667" y="413.501" fill="#0F0F0F" width="13.25" height="28.752"/>
<rect x="246.417" y="413.501" fill="#0F0F0F" width="13.25" height="28.752"/>
<rect x="169.667" y="413.501" fill="#0F0F0F" width="13.25" height="28.752"/>
<rect x="92.917" y="413.501" fill="#0F0F0F" width="13.25" height="28.752"/>
<rect x="17.167" y="413.501" fill="#0F0F0F" width="13.25" height="28.752"/>
<rect x="628.917" y="413.501" fill="#0F0F0F" width="13.25" height="28.752"/>
<rect x="705.667" y="413.501" fill="#0F0F0F" width="13.25" height="28.752"/>
<rect x="781.917" y="413.501" fill="#0F0F0F" width="13.25" height="28.752"/>
<rect x="857.667" y="413.501" fill="#0F0F0F" width="13.25" height="28.752"/>
<g>
	<rect x="817" y="347.501" fill="#7BA64F" width="21.167" height="78.834"/>
	<rect x="812.333" y="353.501" fill="#7BA64F" width="5.666" height="6.834"/>
	<rect x="812.333" y="374.335" fill="#7BA64F" width="5.666" height="6.833"/>
	<rect x="812.333" y="392.335" fill="#7BA64F" width="5.666" height="6.833"/>
	<rect x="812.333" y="413.501" fill="#7BA64F" width="5.666" height="6.834"/>
	<rect x="837.166" y="353.501" fill="#7BA64F" width="5.667" height="6.834"/>
	<rect x="837.166" y="374.335" fill="#7BA64F" width="5.667" height="6.833"/>
	<rect x="837.166" y="392.335" fill="#7BA64F" width="5.667" height="6.833"/>
	<rect x="837.166" y="413.501" fill="#7BA64F" width="5.667" height="6.834"/>
</g>
<g>
	<rect x="740.583" y="347.501" fill="#222061" width="21.167" height="78.834"/>
	<rect x="735.917" y="353.501" fill="#222061" width="5.666" height="6.834"/>
	<rect x="735.917" y="374.335" fill="#222061" width="5.666" height="6.833"/>
	<rect x="735.917" y="392.335" fill="#222061" width="5.666" height="6.833"/>
	<rect x="735.917" y="413.501" fill="#222061" width="5.666" height="6.834"/>
	<rect x="760.75" y="353.501" fill="#222061" width="5.667" height="6.834"/>
	<rect x="760.75" y="374.335" fill="#222061" width="5.667" height="6.833"/>
	<rect x="760.75" y="392.335" fill="#222061" width="5.667" height="6.833"/>
	<rect x="760.75" y="413.501" fill="#222061" width="5.667" height="6.834"/>
</g>
<g>
	<rect x="664.583" y="347.501" fill="#222061" width="21.167" height="78.834"/>
	<rect x="659.917" y="353.501" fill="#222061" width="5.666" height="6.834"/>
	<rect x="659.917" y="374.335" fill="#222061" width="5.666" height="6.833"/>
	<rect x="659.917" y="392.335" fill="#222061" width="5.666" height="6.833"/>
	<rect x="659.917" y="413.501" fill="#222061" width="5.666" height="6.834"/>
	<rect x="684.75" y="353.501" fill="#222061" width="5.667" height="6.834"/>
	<rect x="684.75" y="374.335" fill="#222061" width="5.667" height="6.833"/>
	<rect x="684.75" y="392.335" fill="#222061" width="5.667" height="6.833"/>
	<rect x="684.75" y="413.501" fill="#222061" width="5.667" height="6.834"/>
</g>
<g>
	<rect x="588.333" y="347.501" fill="#222061" width="21.167" height="78.834"/>
	<rect x="583.667" y="353.501" fill="#222061" width="5.666" height="6.834"/>
	<rect x="583.667" y="374.335" fill="#222061" width="5.666" height="6.833"/>
	<rect x="583.667" y="392.335" fill="#222061" width="5.666" height="6.833"/>
	<rect x="583.667" y="413.501" fill="#222061" width="5.666" height="6.834"/>
	<rect x="608.5" y="353.501" fill="#222061" width="5.667" height="6.834"/>
	<rect x="608.5" y="374.335" fill="#222061" width="5.667" height="6.833"/>
	<rect x="608.5" y="392.335" fill="#222061" width="5.667" height="6.833"/>
	<rect x="608.5" y="413.501" fill="#222061" width="5.667" height="6.834"/>
</g>
<g>
	<rect x="511.083" y="362.751" fill="#474D9F" width="21.167" height="59.334"/>
	<rect x="506.417" y="370.085" fill="#474D9F" width="5.666" height="6.833"/>
	<rect x="506.417" y="388.085" fill="#474D9F" width="5.666" height="6.833"/>
	<rect x="506.417" y="409.251" fill="#474D9F" width="5.666" height="6.834"/>
	<rect x="531.249" y="370.085" fill="#474D9F" width="5.667" height="6.833"/>
	<rect x="531.249" y="388.085" fill="#474D9F" width="5.667" height="6.833"/>
	<rect x="531.249" y="409.251" fill="#474D9F" width="5.667" height="6.834"/>
</g>
<g>
	<rect x="511.083" y="308.334" fill="#474D9F" width="21.167" height="39.167"/>
	<rect x="506.417" y="315.667" fill="#474D9F" width="5.666" height="6.834"/>
	<rect x="506.417" y="333.667" fill="#474D9F" width="5.666" height="6.834"/>
	<rect x="531.249" y="315.667" fill="#474D9F" width="5.667" height="6.834"/>
	<rect x="531.249" y="333.667" fill="#474D9F" width="5.667" height="6.834"/>
</g>
<g>
	<rect x="433.583" y="308.334" fill="#474D9F" width="21.167" height="39.167"/>
	<rect x="428.917" y="315.667" fill="#474D9F" width="5.666" height="6.834"/>
	<rect x="428.917" y="333.667" fill="#474D9F" width="5.666" height="6.834"/>
	<rect x="453.749" y="315.667" fill="#474D9F" width="5.667" height="6.834"/>
	<rect x="453.749" y="333.667" fill="#474D9F" width="5.667" height="6.834"/>
</g>
<g>
	<g>
		<rect x="637.834" y="299.335" fill="#9999CD" width="20" height="21.166"/>
		<rect x="657.168" y="290.501" fill="#9999CD" width="11.166" height="19.417"/>
		<rect x="627.167" y="309.001" fill="#9999CD" width="11.5" height="20.333"/>
	</g>
	<rect x="644.333" y="320.501" fill="#9999CD" width="5.668" height="6.834"/>
	<rect x="645" y="292.501" fill="#9999CD" width="5.668" height="6.833"/>
	<rect x="668.334" y="298.417" fill="#9999CD" width="6.833" height="5.667"/>
	<rect x="620.334" y="316.335" fill="#9999CD" width="6.833" height="5.666"/>
</g>
<g>
	<g>
		<rect x="754.834" y="285.834" fill="#222061" width="21.167" height="20"/>
		<rect x="765.417" y="275.334" fill="#222061" width="19.417" height="11.167"/>
		<rect x="746.001" y="305.001" fill="#222061" width="20.333" height="11.5"/>
	</g>
	<rect x="748.001" y="293.669" fill="#222061" width="6.833" height="5.666"/>
	<rect x="776.001" y="293.001" fill="#222061" width="6.833" height="5.666"/>
	<rect x="771.251" y="268.501" fill="#222061" width="5.667" height="6.833"/>
	<rect x="753.334" y="316.501" fill="#222061" width="5.667" height="6.834"/>
</g>
<g>
	<g>
		<rect x="699.334" y="263.501" fill="#222061" width="20.667" height="30.833"/>
		<rect x="717.167" y="283.001" fill="#222061" width="12" height="11.333"/>
		<rect x="680.001" y="263.501" fill="#222061" width="19.333" height="11.333"/>
		<rect x="680.001" y="254.501" fill="#222061" width="10.666" height="12.167"/>
	</g>
	<rect x="692.501" y="281.669" fill="#222061" width="6.833" height="5.666"/>
	<rect x="720.001" y="270.669" fill="#222061" width="6.833" height="5.666"/>
	<rect x="673.168" y="261.836" fill="#222061" width="6.833" height="5.666"/>
	<rect x="696.752" y="256.668" fill="#222061" width="5.666" height="6.833"/>
	<rect x="716.418" y="294.335" fill="#222061" width="5.666" height="6.833"/>
</g>
<g>
	<g>
		<rect x="589.917" y="264.251" fill="#9999CD" width="30.583" height="21.75"/>
		<rect x="609.334" y="286.001" fill="#9999CD" width="11.167" height="9"/>
		<rect x="589.917" y="255.418" fill="#9999CD" width="11.083" height="8.833"/>
	</g>
	<rect x="597.417" y="286.001" fill="#9999CD" width="5.667" height="6.833"/>
	<rect x="607.501" y="257.418" fill="#9999CD" width="5.667" height="6.833"/>
	<rect x="620.501" y="281.918" fill="#9999CD" width="6.834" height="5.667"/>
	<rect x="583.083" y="262.585" fill="#9999CD" width="6.834" height="5.667"/>
</g>
<g>
	<rect x="357.582" y="362.878" fill="#CA3479" width="21.167" height="59.332"/>
	<rect x="352.916" y="370.21" fill="#CA3479" width="5.666" height="6.834"/>
	<rect x="352.916" y="388.21" fill="#CA3479" width="5.666" height="6.834"/>
	<rect x="352.916" y="409.377" fill="#CA3479" width="5.666" height="6.833"/>
	<rect x="377.748" y="370.21" fill="#CA3479" width="5.667" height="6.834"/>
	<rect x="377.748" y="388.21" fill="#CA3479" width="5.667" height="6.834"/>
	<rect x="377.748" y="409.377" fill="#CA3479" width="5.667" height="6.833"/>
</g>
<g>
	<rect x="357.582" y="308.46" fill="#CA3479" width="21.167" height="39.167"/>
	<rect x="352.916" y="315.794" fill="#CA3479" width="5.666" height="6.833"/>
	<rect x="352.916" y="333.794" fill="#CA3479" width="5.666" height="6.833"/>
	<rect x="377.748" y="315.794" fill="#CA3479" width="5.667" height="6.833"/>
	<rect x="377.748" y="333.794" fill="#CA3479" width="5.667" height="6.833"/>
</g>
<g>
	<rect x="204.083" y="362.751" fill="#855C9D" width="21.167" height="59.334"/>
	<rect x="199.417" y="370.085" fill="#855C9D" width="5.666" height="6.833"/>
	<rect x="199.417" y="388.085" fill="#855C9D" width="5.666" height="6.833"/>
	<rect x="199.417" y="409.251" fill="#855C9D" width="5.666" height="6.834"/>
	<rect x="224.25" y="370.085" fill="#855C9D" width="5.667" height="6.833"/>
	<rect x="224.25" y="388.085" fill="#855C9D" width="5.667" height="6.833"/>
	<rect x="224.25" y="409.251" fill="#855C9D" width="5.667" height="6.834"/>
</g>
<g>
	<rect x="204.083" y="308.334" fill="#855C9D" width="21.167" height="39.167"/>
	<rect x="199.417" y="315.667" fill="#855C9D" width="5.666" height="6.834"/>
	<rect x="199.417" y="333.667" fill="#855C9D" width="5.666" height="6.834"/>
	<rect x="224.25" y="315.667" fill="#855C9D" width="5.667" height="6.834"/>
	<rect x="224.25" y="333.667" fill="#855C9D" width="5.667" height="6.834"/>
</g>
<g>
	<rect x="127.583" y="362.751" fill="#855C9D" width="21.167" height="59.334"/>
	<rect x="122.917" y="370.085" fill="#855C9D" width="5.666" height="6.833"/>
	<rect x="122.917" y="388.085" fill="#855C9D" width="5.666" height="6.833"/>
	<rect x="122.917" y="409.251" fill="#855C9D" width="5.666" height="6.834"/>
	<rect x="147.749" y="370.085" fill="#855C9D" width="5.667" height="6.833"/>
	<rect x="147.749" y="388.085" fill="#855C9D" width="5.667" height="6.833"/>
	<rect x="147.749" y="409.251" fill="#855C9D" width="5.667" height="6.834"/>
</g>
<g>
	<rect x="127.583" y="308.334" fill="#855C9D" width="21.167" height="39.167"/>
	<rect x="122.917" y="315.667" fill="#855C9D" width="5.666" height="6.834"/>
	<rect x="122.917" y="333.667" fill="#855C9D" width="5.666" height="6.834"/>
	<rect x="147.749" y="315.667" fill="#855C9D" width="5.667" height="6.834"/>
	<rect x="147.749" y="333.667" fill="#855C9D" width="5.667" height="6.834"/>
</g>
<g>
	<rect x="51.25" y="362.751" fill="#855C9D" width="21.167" height="59.334"/>
	<rect x="46.583" y="370.085" fill="#855C9D" width="5.666" height="6.833"/>
	<rect x="46.583" y="388.085" fill="#855C9D" width="5.666" height="6.833"/>
	<rect x="46.583" y="409.251" fill="#855C9D" width="5.666" height="6.834"/>
	<rect x="71.416" y="370.085" fill="#855C9D" width="5.667" height="6.833"/>
	<rect x="71.416" y="388.085" fill="#855C9D" width="5.667" height="6.833"/>
	<rect x="71.416" y="409.251" fill="#855C9D" width="5.667" height="6.834"/>
</g>
<g>
	<rect x="51.25" y="308.334" fill="#855C9D" width="21.167" height="39.167"/>
	<rect x="46.583" y="315.667" fill="#855C9D" width="5.666" height="6.834"/>
	<rect x="46.583" y="333.667" fill="#855C9D" width="5.666" height="6.834"/>
	<rect x="71.416" y="315.667" fill="#855C9D" width="5.667" height="6.834"/>
	<rect x="71.416" y="333.667" fill="#855C9D" width="5.667" height="6.834"/>
	<rect x="44.968" y="273.7" fill="#855C9D" width="33.729" height="12.843"/>
	<rect x="47.833" y="268.4" fill="#855C9D" width="6.833" height="5.667"/>
	<rect x="70.833" y="268.4" fill="#855C9D" width="6.833" height="5.667"/>
</g>
<g>
	<rect x="357.333" y="20.501" fill="#373898" width="21.167" height="72.833"/>
	<rect x="352.667" y="28.501" fill="#373898" width="5.667" height="6.833"/>
	<rect x="352.667" y="53.501" fill="#373898" width="5.667" height="6.833"/>
	<rect x="352.667" y="77.752" fill="#373898" width="5.667" height="6.833"/>
	<rect x="377.5" y="28.501" fill="#373898" width="5.667" height="6.833"/>
	<rect x="377.5" y="53.501" fill="#373898" width="5.667" height="6.833"/>
	<rect x="377.5" y="77.752" fill="#373898" width="5.667" height="6.833"/>
</g>
<g>
	<rect x="281.667" y="20.501" fill="#ECDE1A" width="21.167" height="72.833"/>
	<rect x="277" y="28.501" fill="#ECDE1A" width="5.667" height="6.833"/>
	<rect x="277" y="53.501" fill="#ECDE1A" width="5.667" height="6.833"/>
	<rect x="277" y="77.752" fill="#ECDE1A" width="5.667" height="6.833"/>
	<rect x="301.833" y="28.501" fill="#ECDE1A" width="5.667" height="6.833"/>
	<rect x="301.833" y="53.501" fill="#ECDE1A" width="5.667" height="6.833"/>
	<rect x="301.833" y="77.752" fill="#ECDE1A" width="5.667" height="6.833"/>
</g>
<g>
	<rect x="204.333" y="20.501" fill="#ECDE1A" width="21.167" height="72.833"/>
	<rect x="199.667" y="28.501" fill="#ECDE1A" width="5.667" height="6.833"/>
	<rect x="199.667" y="53.501" fill="#ECDE1A" width="5.667" height="6.833"/>
	<rect x="199.667" y="77.752" fill="#ECDE1A" width="5.667" height="6.833"/>
	<rect x="224.5" y="28.501" fill="#ECDE1A" width="5.667" height="6.833"/>
	<rect x="224.5" y="53.501" fill="#ECDE1A" width="5.667" height="6.833"/>
	<rect x="224.5" y="77.752" fill="#ECDE1A" width="5.667" height="6.833"/>
</g>
<g>
	<rect x="128.333" y="20.501" fill="#CE7836" width="21.167" height="72.833"/>
	<rect x="123.667" y="28.501" fill="#CE7836" width="5.667" height="6.833"/>
	<rect x="123.667" y="53.501" fill="#CE7836" width="5.667" height="6.833"/>
	<rect x="123.667" y="77.752" fill="#CE7836" width="5.667" height="6.833"/>
	<rect x="148.5" y="28.501" fill="#CE7836" width="5.667" height="6.833"/>
	<rect x="148.5" y="53.501" fill="#CE7836" width="5.667" height="6.833"/>
	<rect x="148.5" y="77.752" fill="#CE7836" width="5.667" height="6.833"/>
</g>
<g>
	<rect x="51" y="20.501" fill="#E6404C" width="21.167" height="72.833"/>
	<rect x="46.334" y="28.501" fill="#E6404C" width="5.667" height="6.833"/>
	<rect x="46.334" y="53.501" fill="#E6404C" width="5.667" height="6.833"/>
	<rect x="46.334" y="77.752" fill="#E6404C" width="5.667" height="6.833"/>
	<rect x="71.167" y="28.501" fill="#E6404C" width="5.667" height="6.833"/>
	<rect x="71.167" y="53.501" fill="#E6404C" width="5.667" height="6.833"/>
	<rect x="71.167" y="77.752" fill="#E6404C" width="5.667" height="6.833"/>
</g>
<g>
	<circle fill="#875DA1" cx="276.855" cy="278.814" r="10.562"/>
	
		<rect x="276.944" y="262.369" transform="matrix(0.9862 0.1657 -0.1657 0.9862 47.9121 -42.6879)" fill="#875DA1" width="5.666" height="6.833"/>
	
		<rect x="287.131" y="272.469" transform="matrix(0.1893 0.9819 -0.9819 0.1893 505.9658 -61.0648)" fill="#875DA1" width="5.666" height="6.833"/>
	
		<rect x="283.989" y="284.531" transform="matrix(-0.6522 0.7581 -0.7581 -0.6522 692.1639 258.3051)" fill="#875DA1" width="5.666" height="6.833"/>
	
		<rect x="271.194" y="288.291" transform="matrix(-0.9913 -0.1317 0.1317 -0.9913 507.2603 616.9548)" fill="#875DA1" width="5.667" height="6.833"/>
	
		<rect x="261.694" y="280.844" transform="matrix(0.4383 0.8988 -0.8988 0.4383 404.1005 -78.0898)" fill="#875DA1" width="5.666" height="6.833"/>
	
		<rect x="264.209" y="266.46" transform="matrix(-0.6912 0.7227 -0.7227 -0.6912 646.6509 263.4136)" fill="#875DA1" width="5.667" height="6.833"/>
</g>
<g>
	<circle fill="#875DA1" cx="306.31" cy="316.891" r="10.563"/>
	
		<rect x="303.352" y="300.123" transform="matrix(0.998 -0.0635 0.0635 0.998 -18.6597 20.0587)" fill="#875DA1" width="5.666" height="6.833"/>
	
		<rect x="315.573" y="307.635" transform="matrix(0.4081 0.9129 -0.9129 0.4081 472.4223 -106.5786)" fill="#875DA1" width="5.667" height="6.833"/>
	
		<rect x="315.264" y="320.095" transform="matrix(-0.4622 0.8868 -0.8868 -0.4622 752.0007 190.9485)" fill="#875DA1" width="5.666" height="6.834"/>
	
		<rect x="303.663" y="326.673" transform="matrix(-0.9952 0.0979 -0.0979 -0.9952 643.8324 628.5901)" fill="#875DA1" width="5.666" height="6.833"/>
	
		<rect x="292.715" y="321.587" transform="matrix(0.6317 0.7752 -0.7752 0.6317 360.7859 -109.4155)" fill="#875DA1" width="5.666" height="6.833"/>
	
		<rect x="291.885" y="307.009" transform="matrix(-0.5082 0.8612 -0.8612 -0.5082 711.8492 214.3843)" fill="#875DA1" width="5.666" height="6.834"/>
</g>
<rect x="480.292" y="362.126" fill="#262626" width="4" height="49.916"/>
<rect x="403.792" y="362.126" fill="#262626" width="4" height="49.916"/>
<rect x="174.416" y="361.96" fill="#262626" width="4" height="49.916"/>
<rect x="97.916" y="361.96" fill="#262626" width="4" height="49.916"/>
<rect x="174.416" y="305.131" fill="#262626" width="4" height="39.249"/>
<rect x="97.916" y="305.131" fill="#262626" width="4" height="39.249"/>
<rect x="480.416" y="305.379" fill="#262626" width="4" height="39.249"/>
<rect x="403.916" y="305.379" fill="#262626" width="4" height="39.249"/>
<rect x="239.208" y="281.251" fill="#262626" width="7.209" height="156.75"/>
<rect x="335.917" y="281.251" fill="#262626" width="7.209" height="156.75"/>
<g>
	<rect x="93.541" y="7.251" fill="#0F0F0F" width="12.75" height="29.5"/>
	<rect x="98.041" y="36.751" fill="#0F0F0F" width="4.25" height="57.5"/>
</g>
<rect x="399.417" y="8.501" fill="#0F0F0F" width="12.75" height="29.5"/>
<rect x="406.709" y="91.314" fill="#0F0F0F" width="147.958" height="0.375"/>
<rect x="406.521" y="24.939" fill="#0F0F0F" width="0.375" height="66.75"/>
<rect x="701.681" y="116.626" fill="#0F0F0F" width="2.723" height="98.834"/>
<rect x="643.181" y="116.626" fill="#0F0F0F" width="2.723" height="91.375"/>
<rect x="667.945" y="198.058" fill="#0F0F0F" width="2.723" height="17.403"/>
<rect x="669.306" y="198.058" fill="#0F0F0F" width="33.736" height="2.723"/>
<rect x="635.39" y="205.279" fill="#0F0F0F" width="33.736" height="2.723"/>
<rect x="634.084" y="204.333" fill="#0F0F0F" width="11.82" height="11.127"/>
<rect x="644.542" y="116.626" fill="#0F0F0F" width="58.5" height="0.375"/>
<rect x="644.542" y="156.626" fill="#0F0F0F" width="58.5" height="0.375"/>
<rect x="370.002" y="117.5" fill="#0F0F0F" width="117.041" height="0.375"/>
<rect x="475.335" y="159.334" fill="#0F0F0F" width="11.708" height="0.375"/>
<rect x="486.668" y="117.874" fill="#0F0F0F" width="0.375" height="41.834"/>
<rect x="416.002" y="117.667" fill="#0F0F0F" width="0.375" height="39.334"/>
<rect x="412.833" y="156.337" fill="#0F0F0F" width="62.501" height="2.997"/>
<rect x="412.833" y="159.334" fill="#0F0F0F" width="3.169" height="41.836"/>
<rect x="416.002" y="199.17" fill="#0F0F0F" width="59.333" height="2"/>
<rect x="472.999" y="156.337" fill="#0F0F0F" width="4.167" height="33.915"/>
<rect x="472.999" y="188.003" fill="#0F0F0F" width="4.167" height="13.167"/>
<rect x="318.104" y="166.002" fill="#0F0F0F" width="94.729" height="2.334"/>
<rect x="370.002" y="117.5" fill="#0F0F0F" width="0.375" height="100.085"/>
<rect x="370.189" y="217.21" fill="#0F0F0F" width="78.853" height="0.375"/>
<rect x="448.23" y="201.17" fill="#0F0F0F" width="1.875" height="16.415"/>
<rect x="185.167" y="117.688" fill="#0F0F0F" width="185.022" height="5.314"/>
<rect x="211.667" y="209.001" fill="#0F0F0F" width="158.522" height="8.208"/>
<rect x="317.917" y="120.125" fill="#0F0F0F" width="0.375" height="94.751"/>
<g>
	<rect x="258.501" y="203.46" fill="#855C9D" width="58.833" height="5.375"/>
	<rect x="308.833" y="198.793" fill="#855C9D" width="6.833" height="5.666"/>
	<rect x="296.584" y="198.793" fill="#855C9D" width="6.833" height="5.666"/>
	<rect x="272.333" y="198.793" fill="#855C9D" width="6.833" height="5.667"/>
	<rect x="260.333" y="198.793" fill="#855C9D" width="6.833" height="5.667"/>
	<rect x="284.501" y="198.793" fill="#855C9D" width="6.833" height="5.666"/>
</g>
<rect x="247.917" y="159.001" fill="#0F0F0F" width="0.375" height="55.375"/>
<rect x="185.605" y="159.001" fill="#0F0F0F" width="62.687" height="0.375"/>
<rect x="177.584" y="117.688" fill="#0F0F0F" width="9" height="43.564"/>
<rect x="183.792" y="161.252" fill="#0F0F0F" width="2.792" height="38.437"/>
<rect x="177.25" y="199.314" fill="#0F0F0F" width="70.668" height="0.375"/>
<rect x="177.25" y="216.835" fill="#0F0F0F" width="57.418" height="0.375"/>
<rect x="177.25" y="199.314" fill="#0F0F0F" width="0.375" height="17.521"/>
<rect x="27.917" y="156.376" fill="#0F0F0F" width="66.5" height="0.375"/>
<rect x="27.917" y="117.5" fill="#0F0F0F" width="66.5" height="0.375"/>
<rect x="27.73" y="117.5" fill="#0F0F0F" width="0.375" height="82.188"/>
<rect x="92.5" y="117.875" fill="#0F0F0F" width="1.917" height="41.501"/>
<rect x="93.459" y="117.5" fill="#0F0F0F" width="45.375" height="2.844"/>
<rect x="93.459" y="159.376" fill="#0F0F0F" width="0.958" height="40.312"/>
<rect x="92.5" y="199.689" fill="#0F0F0F" width="1.917" height="18.312"/>
<rect x="59.917" y="217.043" fill="#0F0F0F" width="79.042" height="0.957"/>
<rect x="136.834" y="117.5" fill="#0F0F0F" width="2.125" height="99.543"/>
<rect x="27.729" y="199.501" fill="#0F0F0F" width="3.105" height="0.375"/>
<rect x="30.168" y="199.501" fill="#0F0F0F" width="63.291" height="1.667"/>
<rect x="27.917" y="143.502" fill="#0F0F0F" width="1.542" height="12"/>
<rect x="29.459" y="154.044" fill="#0F0F0F" width="9.833" height="0.667"/>
<path fill="none" stroke="#000000" stroke-width="0.8" d="M38.985,154.044c0-5.228-4.286-9.458-9.583-9.458"/>
<rect x="40.9" y="147.486" fill="#0F0F0F" width="0.612" height="9.025"/>
<path fill="none" stroke="#000000" stroke-width="0.6" d="M41.512,147.768c4.798,0,8.682,3.934,8.682,8.796"/>
<rect x="90.023" y="217.575" fill="#0F0F0F" width="0.612" height="9.025"/>
<path fill="none" stroke="#000000" stroke-width="0.6" d="M90.023,226.318c-4.798,0-8.682-3.934-8.682-8.796"/>
<rect x="134.681" y="207.897" fill="#0F0F0F" width="0.612" height="9.025"/>
<path fill="none" stroke="#000000" stroke-width="0.6" d="M134.681,208.179c-4.798,0-8.682,3.934-8.682,8.796"/>
<rect x="59.439" y="200.335" fill="#0F0F0F" width="0.957" height="17.665"/>
<rect x="168.506" y="152.015" fill="#0F0F0F" width="9.025" height="0.612"/>
<path fill="none" stroke="#000000" stroke-width="0.6" d="M168.788,152.015c0-4.798,3.934-8.682,8.796-8.682"/>
<rect x="168.48" y="133.639" fill="#0F0F0F" width="9.025" height="0.612"/>
<path fill="none" stroke="#000000" stroke-width="0.6" d="M168.762,134.25c0,4.798,3.934,8.682,8.796,8.682"/>
<rect x="194.056" y="149.923" fill="#0F0F0F" width="0.612" height="9.025"/>
<path fill="none" stroke="#000000" stroke-width="0.6" d="M194.667,150.205c4.798,0,8.682,3.934,8.682,8.796"/>
<rect x="317.97" y="164.368" fill="#0F0F0F" width="9.025" height="0.612"/>
<path fill="none" stroke="#000000" stroke-width="0.6" d="M326.714,164.368c0-4.798-3.934-8.682-8.796-8.682"/>
<rect x="317.997" y="170.626" fill="#0F0F0F" width="9.025" height="0.612"/>
<path fill="none" stroke="#000000" stroke-width="0.6" d="M326.74,171.238c0,4.798-3.934,8.682-8.796,8.682"/>
<rect x="373.931" y="208.567" fill="#0F0F0F" width="0.612" height="9.025"/>
<path fill="none" stroke="#000000" stroke-width="0.6" d="M374.542,208.849c4.798,0,8.682,3.934,8.682,8.796"/>
<rect x="373.854" y="117.553" fill="#0F0F0F" width="0.612" height="9.025"/>
<path fill="none" stroke="#000000" stroke-width="0.6" d="M374.466,126.296c4.798,0,8.682-3.934,8.682-8.796"/>
<rect x="420.667" y="117.579" fill="#0F0F0F" width="0.612" height="9.025"/>
<path fill="none" stroke="#000000" stroke-width="0.6" d="M421.279,126.323c4.798,0,8.682-3.934,8.682-8.796"/>
<rect x="419.229" y="217.45" fill="#0F0F0F" width="0.612" height="9.025"/>
<path fill="none" stroke="#000000" stroke-width="0.6" d="M419.84,226.194c4.798,0,8.682-3.934,8.682-8.796"/>
<rect x="422.875" y="147.757" fill="#0F0F0F" width="0.612" height="9.025"/>
<path fill="none" stroke="#000000" stroke-width="0.6" d="M423.487,148.039c4.798,0,8.682,3.934,8.682,8.796"/>
<rect x="422.875" y="81.962" fill="#0F0F0F" width="0.612" height="9.025"/>
<path fill="none" stroke="#000000" stroke-width="0.6" d="M423.487,82.244c4.798,0,8.682,3.934,8.682,8.796"/>
<rect x="542.901" y="81.936" fill="#0F0F0F" width="0.612" height="9.025"/>
<path fill="none" stroke="#000000" stroke-width="0.6" d="M542.901,82.217c-4.798,0-8.682,3.934-8.682,8.796"/>
<rect x="341.939" y="291.333" fill="#262626" width="212.728" height="0.375"/>
<rect x="10" y="291.145" fill="#262626" width="229.208" height="0.375"/>
<rect x="59.272" y="268.4" fill="#855C9D" width="6.833" height="5.667"/>
<g>
	<rect x="200.938" y="273.54" fill="#855C9D" width="33.729" height="12.843"/>
	<rect x="203.802" y="268.24" fill="#855C9D" width="6.833" height="5.667"/>
	<rect x="226.802" y="268.24" fill="#855C9D" width="6.833" height="5.667"/>
	<rect x="214.992" y="268.083" fill="#855C9D" width="6.833" height="5.667"/>
</g>
<g>
	<rect x="349.449" y="273.907" fill="#855C9D" width="33.729" height="12.843"/>
	<rect x="352.313" y="268.607" fill="#855C9D" width="6.833" height="5.667"/>
	<rect x="375.313" y="268.607" fill="#855C9D" width="6.833" height="5.667"/>
	<rect x="363.503" y="268.45" fill="#855C9D" width="6.833" height="5.667"/>
</g>
<g>
	<rect x="512.083" y="273.958" fill="#855C9D" width="33.729" height="12.843"/>
	<rect x="514.947" y="268.659" fill="#855C9D" width="6.833" height="5.667"/>
	<rect x="537.947" y="268.659" fill="#855C9D" width="6.833" height="5.667"/>
	<rect x="526.136" y="268.501" fill="#855C9D" width="6.833" height="5.667"/>
</g>
<g>
	<rect x="130.667" y="264.501" fill="#875DA1" width="9.75" height="8.625"/>
	
		<rect x="149.753" y="265.126" transform="matrix(0.7915 0.6111 -0.6111 0.7915 197.4541 -38.4225)" fill="#875DA1" width="10.585" height="10.171"/>
	
		<rect x="116.915" y="268.04" transform="matrix(0.6135 -0.7897 0.7897 0.6135 -168.4563 202.0829)" fill="#875DA1" width="10.585" height="10.171"/>
	<path fill="#875DA1" d="M136.917,277.628c0,1.545-1.252,2.798-2.798,2.798h-1.851c-1.545,0-2.798-1.252-2.798-2.798l0,0
		c0-1.545,1.252-2.798,2.798-2.798h1.851C135.665,274.83,136.917,276.083,136.917,277.628L136.917,277.628z"/>
	<path fill="#875DA1" d="M153.416,277.963c0,1.36-1.103,2.462-2.462,2.462h-2.449c-1.359,0-2.462-1.103-2.462-2.462l0,0
		c0-1.359,1.103-2.462,2.462-2.462h2.449C152.313,275.501,153.416,276.604,153.416,277.963L153.416,277.963z"/>
</g>
<g>
	<rect x="436.04" y="264.189" fill="#875DA1" width="9.75" height="8.625"/>
	
		<rect x="455.125" y="264.813" transform="matrix(0.7915 0.6111 -0.6111 0.7915 260.9224 -225.1075)" fill="#875DA1" width="10.585" height="10.171"/>
	
		<rect x="422.287" y="267.728" transform="matrix(0.6135 -0.7897 0.7897 0.6135 -50.1724 443.1212)" fill="#875DA1" width="10.585" height="10.171"/>
	<path fill="#875DA1" d="M442.29,277.315c0,1.545-1.252,2.798-2.798,2.798h-1.851c-1.545,0-2.798-1.252-2.798-2.798l0,0
		c0-1.545,1.252-2.798,2.798-2.798h1.851C441.037,274.518,442.29,275.77,442.29,277.315L442.29,277.315z"/>
	<path fill="#875DA1" d="M458.788,277.651c0,1.36-1.103,2.462-2.462,2.462h-2.449c-1.359,0-2.462-1.103-2.462-2.462l0,0
		c0-1.359,1.103-2.462,2.462-2.462h2.449C457.685,275.189,458.788,276.292,458.788,277.651L458.788,277.651z"/>
</g>
<rect x="82.626" y="279.501" fill="#262626" width="0.375" height="12.019"/>
<rect x="118.459" y="279.501" fill="#262626" width="0.375" height="12.019"/>
<rect x="160.126" y="279.126" fill="#262626" width="0.375" height="12.019"/>
<rect x="196.959" y="279.126" fill="#262626" width="0.375" height="12.019"/>
<rect x="41" y="279.126" fill="#262626" width="0.375" height="12.019"/>
<rect x="463.167" y="279.314" fill="#262626" width="0.375" height="12.019"/>
<rect x="422.125" y="279.314" fill="#262626" width="0.375" height="12.019"/>
<rect x="385.958" y="279.314" fill="#262626" width="0.375" height="12.019"/>
<rect x="501.292" y="279.314" fill="#262626" width="0.375" height="12.019"/>
<rect x="646.708" y="107.548" fill="#0F0F0F" width="0.611" height="9.025"/>
<path fill="none" stroke="#000000" stroke-width="0.6" d="M647.319,107.83c4.799,0,8.682,3.934,8.682,8.796"/>
<rect x="653.067" y="147.548" fill="#0F0F0F" width="0.611" height="9.025"/>
<path fill="none" stroke="#000000" stroke-width="0.6" d="M653.678,147.83c4.799,0,8.683,3.934,8.683,8.796"/>
<rect x="794.186" y="107.689" fill="#0F0F0F" width="0.612" height="9.025"/>
<path fill="none" stroke="#000000" stroke-width="0.6" d="M794.186,107.971c-4.798,0-8.682,3.934-8.682,8.796"/>
<rect x="820.656" y="107.831" fill="#0F0F0F" width="0.613" height="9.025"/>
<path fill="none" stroke="#000000" stroke-width="0.6" d="M821.269,108.112c4.797,0,8.682,3.934,8.682,8.796"/>
<rect x="746.595" y="174.71" fill="#0F0F0F" width="9.025" height="0.612"/>
<path fill="none" stroke="#000000" stroke-width="0.6" d="M755.339,175.323c0,4.798-3.935,8.682-8.797,8.682"/>
<rect x="805.922" y="150.646" fill="#0F0F0F" width="0.613" height="5.546"/>
<path fill="none" stroke="#000000" stroke-width="0.6" d="M806.536,150.82c4.797,0,8.682,2.417,8.682,5.405"/>
<rect x="563.533" y="92.854" fill="#0F0F0F" width="5.546" height="0.613"/>
<path fill="none" stroke="#000000" stroke-width="0.6" d="M568.905,93.467c0,4.797-2.416,8.682-5.404,8.682"/>
<rect x="563.549" y="113.114" fill="#0F0F0F" width="5.546" height="0.613"/>
<path fill="none" stroke="#000000" stroke-width="0.6" d="M568.921,113.114c0-4.797-2.416-8.682-5.404-8.682"/>
<rect x="563.533" y="232.803" fill="#0F0F0F" width="5.546" height="0.613"/>
<path fill="none" stroke="#000000" stroke-width="0.6" d="M568.905,233.416c0,4.797-2.416,8.682-5.404,8.682"/>
<rect x="563.549" y="253.062" fill="#0F0F0F" width="5.546" height="0.613"/>
<path fill="none" stroke="#000000" stroke-width="0.6" d="M568.921,253.062c0-4.797-2.416-8.682-5.404-8.682"/>
<rect x="563.438" y="256.231" fill="#0F0F0F" width="5.546" height="0.613"/>
<path fill="none" stroke="#000000" stroke-width="0.6" d="M568.81,256.845c0,4.797-2.416,8.682-5.404,8.682"/>
<rect x="563.454" y="276.491" fill="#0F0F0F" width="5.546" height="0.613"/>
<path fill="none" stroke="#000000" stroke-width="0.6" d="M568.826,276.491c0-4.797-2.416-8.682-5.404-8.682"/>
<rect x="386.333" y="279.314" fill="#262626" width="35.792" height="2.227"/>
<rect x="386.333" y="283.722" fill="#262626" width="35.792" height="2.227"/>
<rect x="386.333" y="288.15" fill="#262626" width="35.792" height="2.227"/>
<rect x="463.542" y="279.304" fill="#262626" width="37.75" height="2.227"/>
<rect x="463.542" y="283.711" fill="#262626" width="37.75" height="2.227"/>
<rect x="463.542" y="288.14" fill="#262626" width="37.75" height="2.227"/>
<rect x="160.521" y="279.126" fill="#262626" width="36.438" height="2.227"/>
<rect x="160.521" y="283.534" fill="#262626" width="36.438" height="2.227"/>
<rect x="160.521" y="287.962" fill="#262626" width="36.438" height="2.227"/>
<rect x="82.813" y="279.501" fill="#262626" width="35.792" height="2.227"/>
<rect x="82.813" y="283.909" fill="#262626" width="35.792" height="2.227"/>
<rect x="82.813" y="288.337" fill="#262626" width="35.792" height="2.227"/>
<g>
	<circle fill="#875DA1" cx="278.589" cy="364.569" r="10.563"/>
	
		<rect x="275.631" y="347.801" transform="matrix(0.998 -0.0634 0.0634 0.998 -21.7151 18.3685)" fill="#875DA1" width="5.666" height="6.833"/>
	
		<rect x="287.852" y="355.313" transform="matrix(0.4081 0.9129 -0.9129 0.4081 499.5411 -53.0522)" fill="#875DA1" width="5.667" height="6.833"/>
	
		<rect x="287.543" y="367.773" transform="matrix(-0.4622 0.8868 -0.8868 -0.4622 753.7473 285.2447)" fill="#875DA1" width="5.666" height="6.834"/>
	
		<rect x="275.941" y="374.351" transform="matrix(-0.9952 0.0979 -0.0979 -0.9952 593.1904 726.4303)" fill="#875DA1" width="5.666" height="6.833"/>
	
		<rect x="264.994" y="369.265" transform="matrix(0.6317 0.7752 -0.7752 0.6317 387.5363 -70.3675)" fill="#875DA1" width="5.666" height="6.833"/>
	
		<rect x="264.163" y="354.686" transform="matrix(-0.5082 0.8612 -0.8612 -0.5082 711.0992 310.1675)" fill="#875DA1" width="5.666" height="6.834"/>
</g>
</svg>
