<?xml version="1.0" encoding="utf-8"?>
<!-- Generator: Adobe Illustrator 16.0.0, SVG Export Plug-In . SVG Version: 6.00 Build 0)  -->
<!DOCTYPE svg PUBLIC "-//W3C//DTD SVG 1.1//EN" "http://www.w3.org/Graphics/SVG/1.1/DTD/svg11.dtd">
<svg version="1.1" id="Laag_1" xmlns="http://www.w3.org/2000/svg" xmlns:xlink="http://www.w3.org/1999/xlink" x="0px" y="0px"
	 width="1099px" height="503px" viewBox="0 0 1099 503" enable-background="new 0 0 1099 503" xml:space="preserve">
<g>
	<rect x="145.5" y="146.5" stroke="#000000" stroke-miterlimit="10" width="5" height="47"/>
	<rect x="123.5" y="190.5" stroke="#000000" stroke-miterlimit="10" width="3" height="62"/>
	<rect x="126.5" y="190.5" stroke="#000000" stroke-miterlimit="10" width="22" height="3"/>
	<rect x="126.5" y="248.5" stroke="#000000" stroke-miterlimit="10" width="160" height="4"/>
	<rect x="274.5" y="239.5" stroke="#000000" stroke-miterlimit="10" width="12" height="11"/>
	<rect x="283.5" y="249.5" stroke="#000000" stroke-miterlimit="10" width="649" height="1"/>
	<rect x="437.5" y="239.5" stroke="#000000" stroke-miterlimit="10" width="12" height="12"/>
	<rect x="600.5" y="239.5" stroke="#000000" stroke-miterlimit="10" width="12" height="12"/>
	<rect x="762.5" y="239.5" stroke="#000000" stroke-miterlimit="10" width="12" height="12"/>
	<rect x="925.5" y="239.5" stroke="#000000" stroke-miterlimit="10" width="12" height="12"/>
	<rect x="332.5" y="248.5" stroke="#000000" stroke-miterlimit="10" width="4" height="4"/>
	<rect x="386.5" y="248.5" stroke="#000000" stroke-miterlimit="10" width="4" height="4"/>
	<rect x="495.5" y="248.5" stroke="#000000" stroke-miterlimit="10" width="4" height="4"/>
	<rect x="449.5" y="248.5" stroke="#000000" stroke-miterlimit="10" width="2" height="3"/>
	<rect x="467.5" y="248.5" stroke="#000000" stroke-miterlimit="10" width="2" height="3"/>
	<rect x="435.5" y="248.5" stroke="#000000" stroke-miterlimit="10" width="2" height="3"/>
	<rect x="417.5" y="248.5" stroke="#000000" stroke-miterlimit="10" width="2" height="3"/>
	<rect x="612.5" y="248.5" stroke="#000000" stroke-miterlimit="10" width="2" height="3"/>
	<rect x="598.5" y="248.5" stroke="#000000" stroke-miterlimit="10" width="2" height="3"/>
	<rect x="760.5" y="248.5" stroke="#000000" stroke-miterlimit="10" width="2" height="3"/>
	<rect x="743.5" y="248.5" stroke="#000000" stroke-miterlimit="10" width="2" height="3"/>
	<rect x="774.5" y="248.5" stroke="#000000" stroke-miterlimit="10" width="2" height="3"/>
	<rect x="923.5" y="248.5" stroke="#000000" stroke-miterlimit="10" width="2" height="3"/>
	<rect x="905.5" y="248.5" stroke="#000000" stroke-miterlimit="10" width="2" height="3"/>
	<rect x="930.5" y="237.5" stroke="#000000" stroke-miterlimit="10" width="3" height="2"/>
	<rect x="930.5" y="208.5" stroke="#000000" stroke-miterlimit="10" width="3" height="2"/>
	<rect x="549.5" y="248.5" stroke="#000000" stroke-miterlimit="10" width="4" height="4"/>
	<rect x="658.5" y="248.5" stroke="#000000" stroke-miterlimit="10" width="4" height="4"/>
	<rect x="712.5" y="248.5" stroke="#000000" stroke-miterlimit="10" width="4" height="4"/>
	<rect x="821.5" y="248.5" stroke="#000000" stroke-miterlimit="10" width="4" height="4"/>
	<rect x="875.5" y="248.5" stroke="#000000" stroke-miterlimit="10" width="4" height="4"/>
	<rect x="929.5" y="189.5" stroke="#000000" stroke-miterlimit="10" width="4" height="4"/>
	<rect x="224.5" y="146.5" stroke="#000000" stroke-miterlimit="10" width="3" height="106"/>
	<rect x="215.5" y="146.5" stroke="#000000" stroke-miterlimit="10" width="3" height="106"/>
	<rect x="179.5" y="146.5" stroke="#000000" stroke-miterlimit="10" width="48" height="3"/>
	<rect x="113.5" y="148.5" stroke="#000000" stroke-miterlimit="10" width="67" height="1"/>
	<rect x="13.5" y="146.5" stroke="#000000" stroke-miterlimit="10" width="104" height="3"/>
	<rect x="13.5" y="87.5" stroke="#000000" stroke-miterlimit="10" width="104" height="3"/>
	<rect x="114.5" y="90.5" stroke="#000000" stroke-miterlimit="10" width="3" height="58"/>
	<rect x="111.5" y="238.5" stroke="#000000" stroke-miterlimit="10" width="12" height="14"/>
	<rect x="0.5" y="238.5" stroke="#000000" stroke-miterlimit="10" width="112" height="4"/>
	<rect x="0.5" y="0.5" stroke="#000000" stroke-miterlimit="10" width="13" height="493"/>
	<rect x="0.5" y="480.5" stroke="#000000" stroke-miterlimit="10" width="937" height="14"/>
	<rect x="12.5" y="0.5" stroke="#000000" stroke-miterlimit="10" width="164" height="12"/>
	<rect x="162.5" y="10.5" stroke="#000000" stroke-miterlimit="10" width="14" height="89"/>
	<rect x="116.5" y="97.5" stroke="#000000" stroke-miterlimit="10" width="19" height="3"/>
	<rect x="129.5" y="97.5" stroke="#000000" stroke-miterlimit="10" width="44" height="1"/>
	<rect x="176.5" y="85.5" stroke="#000000" stroke-miterlimit="10" width="482" height="14"/>
	<rect x="658.5" y="85.5" stroke="#000000" stroke-miterlimit="10" width="3" height="54"/>
	<rect x="661.5" y="136.5" stroke="#000000" stroke-miterlimit="10" width="23" height="3"/>
	<rect x="679.5" y="138.5" stroke="#000000" stroke-miterlimit="10" width="68" height="1"/>
	<rect x="711.5" y="136.5" stroke="#000000" stroke-miterlimit="10" width="6" height="3"/>
	<rect x="744.5" y="136.5" stroke="#000000" stroke-miterlimit="10" width="155" height="3"/>
	<rect x="657.5" y="85.5" stroke="#000000" stroke-miterlimit="10" width="115" height="3"/>
	<rect x="765.5" y="0.5" stroke="#000000" stroke-miterlimit="10" width="14" height="97"/>
	<rect x="765.5" y="0.5" stroke="#000000" stroke-miterlimit="10" width="326" height="11"/>
	<rect x="928.5" y="9.5" stroke="#000000" stroke-miterlimit="10" width="11" height="130"/>
	<rect x="862.5" y="136.5" stroke="#000000" stroke-miterlimit="10" width="68" height="1"/>
	<rect x="767.5" y="137.5" stroke="#000000" stroke-miterlimit="10" width="3" height="42"/>
	<rect x="767.5" y="206.5" stroke="#000000" stroke-miterlimit="10" width="3" height="42"/>
	<rect x="769.5" y="147.5" stroke="#000000" stroke-miterlimit="10" width="1" height="68"/>
	<rect x="931.5" y="137.5" stroke="#000000" stroke-miterlimit="10" width="1" height="106"/>
	<rect x="875.5" y="251.5" stroke="#000000" stroke-miterlimit="10" width="3" height="241"/>
	<rect x="932.5" y="241.5" stroke="#000000" stroke-miterlimit="10" width="148" height="3"/>
	<rect x="1077.5" y="6.5" stroke="#000000" stroke-miterlimit="10" width="14" height="469"/>
	<rect x="1036.5" y="466.5" stroke="#000000" stroke-miterlimit="10" width="55" height="14"/>
	<rect x="927.5" y="457.5" stroke="#000000" stroke-miterlimit="10" width="11" height="37"/>
	<rect x="935.5" y="419.5" stroke="#000000" stroke-miterlimit="10" width="3" height="73"/>
	<rect x="907.5" y="419.5" stroke="#000000" stroke-miterlimit="10" width="31" height="3"/>
	<rect x="878.5" y="421.5" stroke="#000000" stroke-miterlimit="10" width="52" height="1"/>
	<rect x="835" y="100" fill="none" stroke="#000000" stroke-width="2" stroke-miterlimit="10" width="7" height="37"/>
	<rect x="842" y="100" fill="none" stroke="#000000" stroke-width="2" stroke-miterlimit="10" width="7" height="37"/>
	<rect x="849" y="100" fill="none" stroke="#000000" stroke-width="2" stroke-miterlimit="10" width="7" height="37"/>
	<rect x="856" y="100" fill="none" stroke="#000000" stroke-width="2" stroke-miterlimit="10" width="7" height="37"/>
	<rect x="863" y="100" fill="none" stroke="#000000" stroke-width="2" stroke-miterlimit="10" width="7" height="37"/>
	<rect x="813.5" y="98.5" stroke="#000000" stroke-miterlimit="10" width="69" height="3"/>
	<rect x="813.5" y="48.5" stroke="#000000" stroke-miterlimit="10" width="69" height="3"/>
	<rect x="813.5" y="49.5" stroke="#000000" stroke-miterlimit="10" width="3" height="51"/>
	<rect x="879.5" y="49.5" stroke="#000000" stroke-miterlimit="10" width="3" height="7"/>
	<rect x="879.5" y="92.5" stroke="#000000" stroke-miterlimit="10" width="3" height="7"/>
	<rect x="774.5" y="96.5" stroke="#000000" stroke-miterlimit="10" width="3" height="42"/>
	<rect x="778" y="57" fill="none" stroke="#000000" stroke-width="2" stroke-miterlimit="10" width="37" height="7"/>
	<rect x="778" y="64" fill="none" stroke="#000000" stroke-width="2" stroke-miterlimit="10" width="37" height="7"/>
	<rect x="778" y="71" fill="none" stroke="#000000" stroke-width="2" stroke-miterlimit="10" width="37" height="7"/>
	<rect x="778" y="78" fill="none" stroke="#000000" stroke-width="2" stroke-miterlimit="10" width="37" height="7"/>
	<rect x="778" y="85" fill="none" stroke="#000000" stroke-width="2" stroke-miterlimit="10" width="37" height="7"/>
	<rect x="834" y="11" fill="none" stroke="#000000" stroke-width="2" stroke-miterlimit="10" width="7" height="37"/>
	<rect x="841" y="11" fill="none" stroke="#000000" stroke-width="2" stroke-miterlimit="10" width="7" height="37"/>
	<rect x="848" y="11" fill="none" stroke="#000000" stroke-width="2" stroke-miterlimit="10" width="7" height="37"/>
	<rect x="855" y="11" fill="none" stroke="#000000" stroke-width="2" stroke-miterlimit="10" width="7" height="37"/>
	<rect x="862" y="11" fill="none" stroke="#000000" stroke-width="2" stroke-miterlimit="10" width="7" height="37"/>
	<rect x="75" y="49" fill="none" stroke="#000000" stroke-width="2" stroke-miterlimit="10" width="7" height="39"/>
	<rect x="82" y="49" fill="none" stroke="#000000" stroke-width="2" stroke-miterlimit="10" width="7" height="39"/>
	<rect x="89" y="49" fill="none" stroke="#000000" stroke-width="2" stroke-miterlimit="10" width="7" height="39"/>
	<rect x="96" y="49" fill="none" stroke="#000000" stroke-width="2" stroke-miterlimit="10" width="7" height="39"/>
	<rect x="103" y="49" fill="none" stroke="#000000" stroke-width="2" stroke-miterlimit="10" width="7" height="39"/>
	<rect x="49.5" y="47.5" stroke="#000000" stroke-miterlimit="10" width="64" height="3"/>
	<rect x="68" y="49" fill="none" stroke="#000000" stroke-width="2" stroke-miterlimit="10" width="7" height="39"/>
	<rect x="61" y="49" fill="none" stroke="#000000" stroke-width="2" stroke-miterlimit="10" width="7" height="39"/>
	<rect x="54" y="49" fill="none" stroke="#000000" stroke-width="2" stroke-miterlimit="10" width="7" height="39"/>
	<rect x="75" y="10" fill="none" stroke="#000000" stroke-width="2" stroke-miterlimit="10" width="7" height="39"/>
	<rect x="82" y="10" fill="none" stroke="#000000" stroke-width="2" stroke-miterlimit="10" width="7" height="39"/>
	<rect x="89" y="10" fill="none" stroke="#000000" stroke-width="2" stroke-miterlimit="10" width="7" height="39"/>
	<rect x="96" y="10" fill="none" stroke="#000000" stroke-width="2" stroke-miterlimit="10" width="7" height="39"/>
	<rect x="103" y="10" fill="none" stroke="#000000" stroke-width="2" stroke-miterlimit="10" width="7" height="39"/>
	<rect x="68" y="10" fill="none" stroke="#000000" stroke-width="2" stroke-miterlimit="10" width="7" height="39"/>
	<rect x="61" y="10" fill="none" stroke="#000000" stroke-width="2" stroke-miterlimit="10" width="7" height="39"/>
	<rect x="54" y="10" fill="none" stroke="#000000" stroke-width="2" stroke-miterlimit="10" width="7" height="39"/>
	<rect x="936.5" y="472.5" stroke="#000000" stroke-miterlimit="10" width="148" height="3"/>
</g>
</svg>
